<?xml version="1.0" encoding="utf-8"?>
<svg xmlns="http://www.w3.org/2000/svg" style="margin: auto; display: block; shape-rendering: auto; animation-play-state: running; animation-delay: 0s; background: none;" width="281" height="270" preserveAspectRatio="xMidYMid">
<style type="text/css" style="animation-play-state: running; animation-delay: 0s;">
  text {
    text-anchor: middle; font-size: 36px; opacity: 0;
  }
</style>
<g style="transform-origin: 140.5px 135px; transform: scale(0.45); animation-play-state: running; animation-delay: 0s;">
<g transform="translate(140.5,135)" style="animation-play-state: running; animation-delay: 0s;">
  <g transform="translate(0,0)" style="animation-play-state: running; animation-delay: 0s;"><g class="path" style="transform: matrix(1, 0, 0, 1, 0, 14.925); opacity: 0.05; transform-origin: -268.6px -6.98645px; animation: 1s linear 0s 1 normal forwards running float-btt-in-c2290aef-89e2-41d2-8a83-3c382aecf16f;"><path d="M34.16-1.84L34.16-1.84Q27.04 0.80 20.88 0.80L20.88 0.80L20.88 0.80Q13.92 0.80 9.60-2.88L9.60-2.88L9.60-2.88Q5.28-6.56 5.28-14.64L5.28-14.64L5.28-40.32L5.28-40.32Q5.28-46.40 7-49.52L7-49.52L7-49.52Q8.72-52.64 12.24-54.80L12.24-54.80L12.24-54.80Q15.76-56.80 20.88-56.80L20.88-56.80L20.88-56.80Q27.12-56.80 32.16-54.16L32.16-54.16L30.88-51.12L30.88-51.12Q26.32-52.80 22.24-52.80L22.24-52.80L22.24-52.80Q17.36-52.80 13.56-50.40L13.56-50.40L13.56-50.40Q9.76-48 9.76-41.04L9.76-41.04L9.76-14.80L9.76-14.80Q9.76-9.28 12.64-6.28L12.64-6.28L12.64-6.28Q15.52-3.28 21.28-3.28L21.28-3.28L21.28-3.28Q26.32-3.28 33.20-5.60L33.20-5.60L34.16-1.84" fill="#101010" stroke="none" stroke-width="none" transform="translate(-288.3199462890625,21.01355298210592)" style="fill: rgb(16, 16, 16); animation-play-state: running; animation-delay: 0s;"></path></g><g class="path" style="transform: matrix(1, 0, 0, 1, 0, 14.925); opacity: 0.05; transform-origin: -238.56px 0.613554px; animation: 1s linear 0.0388235s 1 normal forwards running float-btt-in-c2290aef-89e2-41d2-8a83-3c382aecf16f;"><path d="M39.76 0L39.76-40.08L44.24-40.08L44-37.28L44-37.28Q47.76-40.80 53.84-40.80L53.84-40.80L53.84-40.80Q56-40.80 59.76-40.08L59.76-40.08L58.56-36L58.56-36Q56-36.80 53.20-36.80L53.20-36.80L53.20-36.80Q49.52-36.80 46.88-35.44L46.88-35.44L46.88-35.44Q44.24-34.08 44.24-31.36L44.24-31.36L44.24 0L39.76 0" fill="#101010" stroke="none" stroke-width="none" transform="translate(-288.3199462890625,21.01355298210592)" style="fill: rgb(34, 70, 52); animation-play-state: running; animation-delay: 0s;"></path></g><g class="path" style="transform: matrix(1, 0, 0, 1, 0, 14.925); opacity: 0.05; transform-origin: -209.6px 1.09355px; animation: 1s linear 0.0776471s 1 normal forwards running float-btt-in-c2290aef-89e2-41d2-8a83-3c382aecf16f;"><path d="M91.12-2.80L91.12-2.80Q88.24-0.96 84.56 0L84.56 0L84.56 0Q80.88 0.96 77.20 0.96L77.20 0.96L77.20 0.96Q71.28 0.96 67.80-1.96L67.80-1.96L67.80-1.96Q64.32-4.88 64.32-10.72L64.32-10.72L64.32-27.12L64.32-27.12Q64.32-33.60 68.36-37.20L68.36-37.20L68.36-37.20Q72.40-40.80 79.04-40.80L79.04-40.80L79.04-40.80Q85.68-40.80 89.40-37.24L89.40-37.24L89.40-37.24Q93.12-33.68 93.12-27.36L93.12-27.36L93.12-16.96L68.80-15.60L68.80-10.72L68.80-10.72Q68.80-6.88 71.28-4.96L71.28-4.96L71.28-4.96Q73.76-3.04 77.76-3.04L77.76-3.04L77.76-3.04Q83.36-3.04 89.36-6.24L89.36-6.24L91.12-2.80zM88.64-27.92L88.64-27.92Q88.64-32.88 85.52-34.92L85.52-34.92L85.52-34.92Q82.40-36.96 78.96-36.96L78.96-36.96L78.96-36.96Q74.56-36.96 71.68-34.56L71.68-34.56L71.68-34.56Q68.80-32.16 68.80-27.04L68.80-27.04L68.80-20L88.64-20.96L88.64-27.92" fill="#101010" stroke="none" stroke-width="none" transform="translate(-288.3199462890625,21.01355298210592)" style="fill: rgb(47, 97, 68); animation-play-state: running; animation-delay: 0s;"></path></g><g class="path" style="transform: matrix(1, 0, 0, 1, 0, 14.925); opacity: 0.05; transform-origin: -173.72px 1.09355px; animation: 1s linear 0.116471s 1 normal forwards running float-btt-in-c2290aef-89e2-41d2-8a83-3c382aecf16f;"><path d="M130 0L130 0Q121.36 0.88 117.52 0.88L117.52 0.88L117.52 0.88Q109.12 0.88 104.16-2.24L104.16-2.24L104.16-2.24Q99.20-5.36 99.20-13.52L99.20-13.52L99.20-20.16L99.20-20.16Q99.20-28.08 104.72-30.80L104.72-30.80L104.72-30.80Q107.36-32.16 111.44-32.16L111.44-32.16L111.44-32.16Q115.20-32.16 119.04-30.92L119.04-30.92L119.04-30.92Q122.88-29.68 125.52-27.68L125.52-27.68L125.52-27.68Q125.52-32.08 122.96-34.68L122.96-34.68L122.96-34.68Q120.40-37.28 113.12-37.28L113.12-37.28L113.36-40.72L113.36-40.72Q121.04-40.72 124.68-38.28L124.68-38.28L124.68-38.28Q128.32-35.84 129.16-32.48L129.16-32.48L129.16-32.48Q130-29.12 130-23.84L130-23.84L130 0zM125.52-24.24L125.52-24.24Q122.24-25.76 118.52-26.88L118.52-26.88L118.52-26.88Q114.80-28 111.68-28L111.68-28L111.68-28Q103.60-28 103.60-19.92L103.60-19.92L103.60-12.96L103.60-12.96Q103.60-7.76 107.20-5.40L107.20-5.40L107.20-5.40Q110.80-3.04 117.44-3.04L117.44-3.04L117.44-3.04Q120.88-3.04 125.52-3.68L125.52-3.68L125.52-24.24" fill="#101010" stroke="none" stroke-width="none" transform="translate(-288.3199462890625,21.01355298210592)" style="fill: rgb(65, 103, 83); animation-play-state: running; animation-delay: 0s;"></path></g><g class="path" style="transform: matrix(1, 0, 0, 1, 0, 14.925); opacity: 0.05; transform-origin: -144.88px -6.46645px; animation: 1s linear 0.155294s 1 normal forwards running float-btt-in-c2290aef-89e2-41d2-8a83-3c382aecf16f;"><path d="M144.88 1.04L144.88 1.04Q140.40-0.24 138.40-3.04L138.40-3.04L138.40-3.04Q136.40-5.84 136.40-10.56L136.40-10.56L136.40-56L140.88-56L140.88-40.08L150.48-40.08L148.56-35.84L140.88-35.84L140.88-10.56L140.88-10.56Q140.88-4.16 146.16-2.40L146.16-2.40L144.88 1.04" fill="#101010" stroke="none" stroke-width="none" transform="translate(-288.3199462890625,21.01355298210592)" style="fill: rgb(134, 155, 146); animation-play-state: running; animation-delay: 0s;"></path></g><g class="path" style="transform: matrix(1, 0, 0, 1, 0, 14.925); opacity: 0.05; transform-origin: -118.8px 1.09355px; animation: 1s linear 0.194118s 1 normal forwards running float-btt-in-c2290aef-89e2-41d2-8a83-3c382aecf16f;"><path d="M181.92-2.80L181.92-2.80Q179.04-0.96 175.36 0L175.36 0L175.36 0Q171.68 0.96 168 0.96L168 0.96L168 0.96Q162.08 0.96 158.60-1.96L158.60-1.96L158.60-1.96Q155.12-4.88 155.12-10.72L155.12-10.72L155.12-27.12L155.12-27.12Q155.12-33.60 159.16-37.20L159.16-37.20L159.16-37.20Q163.20-40.80 169.84-40.80L169.84-40.80L169.84-40.80Q176.48-40.80 180.20-37.24L180.20-37.24L180.20-37.24Q183.92-33.68 183.92-27.36L183.92-27.36L183.92-16.96L159.60-15.60L159.60-10.72L159.60-10.72Q159.60-6.88 162.08-4.96L162.08-4.96L162.08-4.96Q164.56-3.04 168.56-3.04L168.56-3.04L168.56-3.04Q174.16-3.04 180.16-6.24L180.16-6.24L181.92-2.80zM179.44-27.92L179.44-27.92Q179.44-32.88 176.32-34.92L176.32-34.92L176.32-34.92Q173.20-36.96 169.76-36.96L169.76-36.96L169.76-36.96Q165.36-36.96 162.48-34.56L162.48-34.56L162.48-34.56Q159.60-32.16 159.60-27.04L159.60-27.04L159.60-20L179.44-20.96L179.44-27.92" fill="#101010" stroke="none" stroke-width="none" transform="translate(-288.3199462890625,21.01355298210592)" style="fill: rgb(252, 253, 254); animation-play-state: running; animation-delay: 0s;"></path></g><g class="path" style="transform: matrix(1, 0, 0, 1, 0, 14.925); opacity: 0.05; transform-origin: -53.1199px -6.98645px; animation: 1s linear 0.232941s 1 normal forwards running float-btt-in-c2290aef-89e2-41d2-8a83-3c382aecf16f;"><path d="M250.40 0L220-47.76L220 0L215.52 0L215.52-56L220-56L250.40-8.24L250.40-56L254.88-56L254.88 0L250.40 0" fill="#101010" stroke="none" stroke-width="none" transform="translate(-288.3199462890625,21.01355298210592)" style="fill: rgb(16, 16, 16); animation-play-state: running; animation-delay: 0s;"></path></g><g class="path" style="transform: matrix(1, 0, 0, 1, 0, 14.925); opacity: 0.05; transform-origin: -9.83995px 1.09355px; animation: 1s linear 0.271765s 1 normal forwards running float-btt-in-c2290aef-89e2-41d2-8a83-3c382aecf16f;"><path d="M290.88-2.80L290.88-2.80Q288-0.96 284.32 0L284.32 0L284.32 0Q280.64 0.96 276.96 0.96L276.96 0.96L276.96 0.96Q271.04 0.96 267.56-1.96L267.56-1.96L267.56-1.96Q264.08-4.88 264.08-10.72L264.08-10.72L264.08-27.12L264.08-27.12Q264.08-33.60 268.12-37.20L268.12-37.20L268.12-37.20Q272.16-40.80 278.80-40.80L278.80-40.80L278.80-40.80Q285.44-40.80 289.16-37.24L289.16-37.24L289.16-37.24Q292.88-33.68 292.88-27.36L292.88-27.36L292.88-16.96L268.56-15.60L268.56-10.72L268.56-10.72Q268.56-6.88 271.04-4.96L271.04-4.96L271.04-4.96Q273.52-3.04 277.52-3.04L277.52-3.04L277.52-3.04Q283.12-3.04 289.12-6.24L289.12-6.24L290.88-2.80zM288.40-27.92L288.40-27.92Q288.40-32.88 285.28-34.92L285.28-34.92L285.28-34.92Q282.16-36.96 278.72-36.96L278.72-36.96L278.72-36.96Q274.32-36.96 271.44-34.56L271.44-34.56L271.44-34.56Q268.56-32.16 268.56-27.04L268.56-27.04L268.56-20L288.40-20.96L288.40-27.92" fill="#101010" stroke="none" stroke-width="none" transform="translate(-288.3199462890625,21.01355298210592)" style="fill: rgb(34, 70, 52); animation-play-state: running; animation-delay: 0s;"></path></g><g class="path" style="transform: matrix(1, 0, 0, 1, 0, 14.925); opacity: 0.05; transform-origin: 35.7201px 0.973553px; animation: 1s linear 0.310588s 1 normal forwards running float-btt-in-c2290aef-89e2-41d2-8a83-3c382aecf16f;"><path d="M332.08 0L324-32.40L315.84 0L309.68 0L297.44-40.08L302.16-40.08L312.80-4.64L321.84-40.08L326.40-40.08L335.20-4.64L345.92-40.08L350.64-40.08L338.24 0L332.08 0" fill="#101010" stroke="none" stroke-width="none" transform="translate(-288.3199462890625,21.01355298210592)" style="fill: rgb(47, 97, 68); animation-play-state: running; animation-delay: 0s;"></path></g><g class="path" style="transform: matrix(1, 0, 0, 1, 0, 14.925); opacity: 0.05; transform-origin: 109.84px -6.98645px; animation: 1s linear 0.349412s 1 normal forwards running float-btt-in-c2290aef-89e2-41d2-8a83-3c382aecf16f;"><path d="M380.80 0L380.80-56L400.48-56L400.48-56Q408.08-56 411.80-51.36L411.80-51.36L411.80-51.36Q415.52-46.72 415.52-38.88L415.52-38.88L415.52-38.88Q415.52-33.84 414.72-29.80L414.72-29.80L414.72-29.80Q413.92-25.76 410.72-22.68L410.72-22.68L410.72-22.68Q407.52-19.60 401.04-19.60L401.04-19.60L385.28-19.60L385.28 0L380.80 0zM401.12-24L401.12-24Q405.60-24 407.80-26.40L407.80-26.40L407.80-26.40Q410-28.80 410.52-31.84L410.52-31.84L410.52-31.84Q411.04-34.88 411.04-38.64L411.04-38.64L411.04-38.64Q411.04-45.20 408.32-48.48L408.32-48.48L408.32-48.48Q405.60-51.76 400.80-51.76L400.80-51.76L385.28-51.76L385.28-24L401.12-24" fill="#101010" stroke="none" stroke-width="none" transform="translate(-288.3199462890625,21.01355298210592)" style="fill: rgb(65, 103, 83); animation-play-state: running; animation-delay: 0s;"></path></g><g class="path" style="transform: matrix(1, 0, 0, 1, 0, 14.925); opacity: 0.05; transform-origin: 144.72px 0.613554px; animation: 1s linear 0.388235s 1 normal forwards running float-btt-in-c2290aef-89e2-41d2-8a83-3c382aecf16f;"><path d="M423.04 0L423.04-40.08L427.52-40.08L427.28-37.28L427.28-37.28Q431.04-40.80 437.12-40.80L437.12-40.80L437.12-40.80Q439.28-40.80 443.04-40.08L443.04-40.08L441.84-36L441.84-36Q439.28-36.80 436.48-36.80L436.48-36.80L436.48-36.80Q432.80-36.80 430.16-35.44L430.16-35.44L430.16-35.44Q427.52-34.08 427.52-31.36L427.52-31.36L427.52 0L423.04 0" fill="#101010" stroke="none" stroke-width="none" transform="translate(-288.3199462890625,21.01355298210592)" style="fill: rgb(134, 155, 146); animation-play-state: running; animation-delay: 0s;"></path></g><g class="path" style="transform: matrix(1, 0, 0, 1, 0, 14.925); opacity: 0.05; transform-origin: 177.64px 0.933554px; animation: 1s linear 0.427059s 1 normal forwards running float-btt-in-c2290aef-89e2-41d2-8a83-3c382aecf16f;"><path d="M480.88-14.72L480.88-14.72Q480.88-8 477.20-3.60L477.20-3.60L477.20-3.60Q473.52 0.80 466.08 0.80L466.08 0.80L466.08 0.80Q458.64 0.80 454.84-3.64L454.84-3.64L454.84-3.64Q451.04-8.08 451.04-14.72L451.04-14.72L451.04-25.28L451.04-25.28Q451.04-32.88 454.92-36.92L454.92-36.92L454.92-36.92Q458.80-40.96 466.08-40.96L466.08-40.96L466.08-40.96Q473.04-40.96 476.96-36.76L476.96-36.76L476.96-36.76Q480.88-32.56 480.88-25.28L480.88-25.28L480.88-14.72zM476.40-25.28L476.40-25.28Q476.40-31.28 473.64-34.08L473.64-34.08L473.64-34.08Q470.88-36.88 466.08-36.88L466.08-36.88L466.08-36.88Q461.12-36.88 458.32-34.08L458.32-34.08L458.32-34.08Q455.52-31.28 455.52-25.28L455.52-25.28L455.52-13.92L455.52-13.92Q455.52-9.12 458.36-6.16L458.36-6.16L458.36-6.16Q461.20-3.20 466.08-3.20L466.08-3.20L466.08-3.20Q471.04-3.20 473.72-6.12L473.72-6.12L473.72-6.12Q476.40-9.04 476.40-13.92L476.40-13.92L476.40-25.28" fill="#101010" stroke="none" stroke-width="none" transform="translate(-288.3199462890625,21.01355298210592)" style="fill: rgb(252, 253, 254); animation-play-state: running; animation-delay: 0s;"></path></g><g class="path" style="transform: matrix(1, 0, 0, 1, 0, 14.925); opacity: 0.05; transform-origin: 202.92px -33.1064px; animation: 1s linear 0.465882s 1 normal forwards running float-btt-in-c2290aef-89e2-41d2-8a83-3c382aecf16f;"><path d="M491.28-51.44L491.28-51.44Q490.24-51.44 489.40-52.28L489.40-52.28L489.40-52.28Q488.56-53.12 488.56-54.16L488.56-54.16L488.56-54.16Q488.56-55.20 489.36-56L489.36-56L489.36-56Q490.16-56.80 491.28-56.80L491.28-56.80L491.28-56.80Q492.40-56.80 493.16-56.04L493.16-56.04L493.16-56.04Q493.92-55.28 493.92-54.16L493.92-54.16L493.92-54.16Q493.92-53.04 493.12-52.24L493.12-52.24L493.12-52.24Q492.32-51.44 491.28-51.44L491.28-51.44" fill="#101010" stroke="none" stroke-width="none" transform="translate(-288.3199462890625,21.01355298210592)" style="fill: rgb(16, 16, 16); animation-play-state: running; animation-delay: 0s;"></path></g><g class="path" style="transform: matrix(1, 0, 0, 1, 0, 14.925); opacity: 0.05; transform-origin: 199.88px 9.33355px; animation: 1s linear 0.504706s 1 normal forwards running float-btt-in-c2290aef-89e2-41d2-8a83-3c382aecf16f;"><path d="M488.96-35.68L485.36-35.92L483.52-40.08L493.44-40.08L493.44 6L493.44 6Q493.28 10.64 490.56 13.68L490.56 13.68L490.56 13.68Q487.84 16.72 483.52 16.72L483.52 16.72L482.96 13.28L482.96 13.28Q482.96 13.52 484.64 12.76L484.64 12.76L484.64 12.76Q486.32 12 487.64 10.04L487.64 10.04L487.64 10.04Q488.96 8.08 488.96 4.48L488.96 4.48L488.96-35.68" fill="#101010" stroke="none" stroke-width="none" transform="translate(-288.3199462890625,21.01355298210592)" style="fill: rgb(34, 70, 52); animation-play-state: running; animation-delay: 0s;"></path></g><g class="path" style="transform: matrix(1, 0, 0, 1, 0, 14.925); opacity: 0.05; transform-origin: 227.84px 1.09355px; animation: 1s linear 0.543529s 1 normal forwards running float-btt-in-c2290aef-89e2-41d2-8a83-3c382aecf16f;"><path d="M528.56-2.80L528.56-2.80Q525.68-0.96 522 0L522 0L522 0Q518.32 0.96 514.64 0.96L514.64 0.96L514.64 0.96Q508.72 0.96 505.24-1.96L505.24-1.96L505.24-1.96Q501.76-4.88 501.76-10.72L501.76-10.72L501.76-27.12L501.76-27.12Q501.76-33.60 505.80-37.20L505.80-37.20L505.80-37.20Q509.84-40.80 516.48-40.80L516.48-40.80L516.48-40.80Q523.12-40.80 526.84-37.24L526.84-37.24L526.84-37.24Q530.56-33.68 530.56-27.36L530.56-27.36L530.56-16.96L506.24-15.60L506.24-10.72L506.24-10.72Q506.24-6.88 508.72-4.96L508.72-4.96L508.72-4.96Q511.20-3.04 515.20-3.04L515.20-3.04L515.20-3.04Q520.80-3.04 526.80-6.24L526.80-6.24L528.56-2.80zM526.08-27.92L526.08-27.92Q526.08-32.88 522.96-34.92L522.96-34.92L522.96-34.92Q519.84-36.96 516.40-36.96L516.40-36.96L516.40-36.96Q512-36.96 509.12-34.56L509.12-34.56L509.12-34.56Q506.24-32.16 506.24-27.04L506.24-27.04L506.24-20L526.08-20.96L526.08-27.92" fill="#101010" stroke="none" stroke-width="none" transform="translate(-288.3199462890625,21.01355298210592)" style="fill: rgb(47, 97, 68); animation-play-state: running; animation-delay: 0s;"></path></g><g class="path" style="transform: matrix(1, 0, 0, 1, 0, 14.925); opacity: 0.05; transform-origin: 261.12px 1.01355px; animation: 1s linear 0.582353s 1 normal forwards running float-btt-in-c2290aef-89e2-41d2-8a83-3c382aecf16f;"><path d="M562.32-0.48L562.32-0.48Q557.36 0.80 552.72 0.80L552.72 0.80L552.72 0.80Q548.40 0.80 545.52-0.16L545.52-0.16L545.52-0.16Q540.80-1.76 538.68-5.08L538.68-5.08L538.68-5.08Q536.56-8.40 536.56-14.40L536.56-14.40L536.56-24.64L536.56-24.64Q536.56-32.56 540.72-36.68L540.72-36.68L540.72-36.68Q544.88-40.80 551.44-40.80L551.44-40.80L551.44-40.80Q556.64-40.80 562.16-38.24L562.16-38.24L560.88-34.96L560.88-34.96Q556.32-36.80 552.08-36.80L552.08-36.80L552.08-36.80Q547.12-36.80 544.08-33.96L544.08-33.96L544.08-33.96Q541.04-31.12 541.04-25.12L541.04-25.12L541.04-13.52L541.04-13.52Q541.04-8 544.36-5.52L544.36-5.52L544.36-5.52Q547.68-3.04 553.20-3.04L553.20-3.04L553.20-3.04Q556.80-3.04 561.36-4.08L561.36-4.08L562.32-0.48" fill="#101010" stroke="none" stroke-width="none" transform="translate(-288.3199462890625,21.01355298210592)" style="fill: rgb(65, 103, 83); animation-play-state: running; animation-delay: 0s;"></path></g><g class="path" style="transform: matrix(1, 0, 0, 1, 0, 14.925); opacity: 0.05; transform-origin: 286.56px -6.46645px; animation: 1s linear 0.621176s 1 normal forwards running float-btt-in-c2290aef-89e2-41d2-8a83-3c382aecf16f;"><path d="M576.32 1.04L576.32 1.04Q571.84-0.24 569.84-3.04L569.84-3.04L569.84-3.04Q567.84-5.84 567.84-10.56L567.84-10.56L567.84-56L572.32-56L572.32-40.08L581.92-40.08L580.00-35.84L572.32-35.84L572.32-10.56L572.32-10.56Q572.32-4.16 577.60-2.40L577.60-2.40L576.32 1.04" fill="#101010" stroke="none" stroke-width="none" transform="translate(-288.3199462890625,21.01355298210592)" style="fill: rgb(134, 155, 146); animation-play-state: running; animation-delay: 0s;"></path></g></g>
</g>
</g>
<style id="float-btt-in-c2290aef-89e2-41d2-8a83-3c382aecf16f" data-anikit="">@keyframes float-btt-in-c2290aef-89e2-41d2-8a83-3c382aecf16f
{
  0% {
    animation-timing-function: cubic-bezier(0.2242,0.7499,0.3142,0.8148);
    transform: translate(0px,14.925px) rotate(0deg) scale(1,1) skewX(0deg) skewY(0deg);
    opacity: 0.05;
  }
  100% {
    transform: translate(0px,0px) rotate(0deg) scale(1,1) skewX(0deg) skewY(0deg);
    opacity: 1;
  }
}</style></svg>